<svg xmlns="http://www.w3.org/2000/svg" viewBox="0 0 800 600" width="100%" height="100%" preserveAspectRatio="none">
    <!-- Transparent background (no rect fill here) -->

    <!-- Circuit-like lines -->
    <g stroke="#4fc3f7" stroke-width="2" stroke-linecap="round">
        <line x1="100" y1="100" x2="200" y2="100" />
        <line x1="200" y1="100" x2="200" y2="200" />
        <line x1="200" y1="200" x2="300" y2="200" />
        <line x1="300" y1="200" x2="300" y2="300" />
        <line x1="300" y1="300" x2="400" y2="300" />
        <line x1="400" y1="300" x2="400" y2="400" />
        <line x1="100" y1="300" x2="200" y2="300" />
        <line x1="200" y1="300" x2="200" y2="400" />
    </g>

    <!-- Circuit nodes (dots) -->
    <g fill="#f9a825">
        <circle cx="100" cy="100" r="5" />
        <circle cx="200" cy="100" r="5" />
        <circle cx="200" cy="200" r="5" />
        <circle cx="300" cy="200" r="5" />
        <circle cx="300" cy="300" r="5" />
        <circle cx="400" cy="300" r="5" />
        <circle cx="400" cy="400" r="5" />
        <circle cx="200" cy="400" r="5" />
        <circle cx="200" cy="300" r="5" />
        <circle cx="100" cy="300" r="5" />
    </g>

    <!-- Diagonal tech-inspired lines -->
    <g stroke="#29b6f6" stroke-width="2" opacity="0.6">
        <line x1="0" y1="0" x2="200" y2="200" />
        <line x1="200" y1="0" x2="400" y2="200" />
        <line x1="400" y1="0" x2="600" y2="200" />
        <line x1="600" y1="0" x2="800" y2="200" />
        <line x1="0" y1="400" x2="200" y2="600" />
        <line x1="200" y1="400" x2="400" y2="600" />
        <line x1="400" y1="400" x2="600" y2="600" />
        <line x1="600" y1="400" x2="800" y2="600" />
    </g>
</svg>